<svg width="114" height="114" viewBox="0 0 114 114" fill="none" xmlns="http://www.w3.org/2000/svg">
<g id="carbon:clean">
<path id="Vector" d="M92.7564 70.7638H71.5333V63.6895H92.7564V70.7638ZM106.905 99.0613H85.6821V91.9869H106.905V99.0613ZM99.8308 84.9126H78.6077V77.8382H99.8308V84.9126Z" fill="#261F2A"/>
<path id="Vector_2" d="M60.9324 70.7641C60.9057 67.7798 60.1089 64.853 58.6192 62.267C57.1294 59.681 54.9972 57.5235 52.429 56.0034L78.6077 10.6319L72.4883 7.09473L45.6871 53.5238C42.3978 52.7894 38.9769 52.8911 35.7372 53.8199C32.4974 54.7486 29.5422 56.4747 27.1416 58.8402C13.8984 71.613 14.9242 101.474 14.9737 102.74C15.0102 103.654 15.399 104.517 16.0584 105.15C16.7179 105.783 17.5968 106.137 18.5109 106.136H71.5368C72.2792 106.136 73.0028 105.902 73.6051 105.468C74.2073 105.034 74.6577 104.422 74.8925 103.717C75.1273 103.013 75.1345 102.253 74.9131 101.544C74.6918 100.835 74.2531 100.214 73.6592 99.769C61.1375 90.3742 60.9324 70.9551 60.9324 70.7641ZM42.9882 60.1419C45.8193 60.173 48.5293 61.2945 50.5546 63.2729C52.5798 65.2514 53.7643 67.9345 53.8615 70.7641C53.8615 70.8985 53.8686 71.4998 53.9216 72.423L33.0522 63.1414C34.4269 62.0079 36.0133 61.1589 37.719 60.644C39.4248 60.129 41.2159 59.9584 42.9882 60.1419ZM55.4391 99.0616C52.6118 96.1827 50.8096 92.454 50.3102 88.45H43.2358C43.4891 92.2146 44.6651 95.8589 46.6598 99.0616H38.7966C37.3414 94.4712 36.4563 89.7193 36.1614 84.9128H29.0871C29.3138 89.705 30.1033 94.4538 31.4393 99.0616H22.0127C22.1223 92.5673 23.0385 78.2205 28.3902 68.808L55.0359 80.6576C56.3133 87.3059 59.0429 93.5902 63.0299 99.0616H55.4391Z" fill="#261F2A"/>
</g>
</svg>
