<svg width="371" height="371" viewBox="0 0 371 371" fill="none" xmlns="http://www.w3.org/2000/svg">
<path d="M108.856 61.7716C99.2703 75.1913 110.113 97.2255 95.9929 107.246C82.2485 116.999 65.6625 100.6 52.7178 108.984C33.515 121.422 36.3891 179.288 63.8921 215.512C72.1632 226.406 79.125 230.684 82.0992 242.938C88.486 269.249 64.9051 284.612 69.2248 297.637C78.951 326.965 233.003 353.11 295.844 265.938C325.193 225.225 330.142 166.042 304.779 120.786C258.947 39.008 130.365 31.6603 108.856 61.7716Z" fill="#3D2E46"/>
<path d="M170.422 228.795C157.022 225.673 147.276 165.635 173.026 142.724C183.77 133.163 195.266 134.898 204.294 121.364C212.349 109.288 206.756 102.57 213.268 88.4003C222.423 68.4769 247.48 51.2974 263.982 57.9951C272.261 61.3556 279.726 71.2706 279.527 82.2014C279.368 90.9561 270.253 97.2471 272.143 99.5818C273.696 101.499 279.25 97.1571 282.425 99.1961C287.108 102.203 286.111 118.763 277.675 130.435C263.235 150.417 236.18 143.363 230.392 159.112C226.702 169.151 236.43 175.455 231.593 185.495C227.336 194.328 217.864 193.478 203.044 201.624C179.83 214.384 177.606 230.469 170.422 228.795Z" fill="url(#paint0_linear_544_5512)"/>
<mask id="mask0_544_5512" style="mask-type:luminance" maskUnits="userSpaceOnUse" x="156" y="56" width="130" height="173">
<path d="M170.422 228.795C157.022 225.673 147.276 165.635 173.026 142.724C183.77 133.163 195.266 134.898 204.294 121.364C212.349 109.288 206.756 102.57 213.268 88.4003C222.423 68.4769 247.48 51.2974 263.982 57.9951C272.261 61.3556 279.726 71.2706 279.527 82.2014C279.368 90.9561 270.253 97.2471 272.143 99.5818C273.696 101.499 279.25 97.1571 282.425 99.1961C287.108 102.203 286.111 118.763 277.675 130.435C263.235 150.417 236.18 143.363 230.392 159.112C226.702 169.151 236.43 175.455 231.593 185.495C227.336 194.328 217.864 193.478 203.044 201.624C179.83 214.384 177.606 230.469 170.422 228.795Z" fill="white"/>
</mask>
<g mask="url(#mask0_544_5512)">
<g opacity="0.5">
<path d="M170.38 241.354C170.092 241.354 169.824 241.172 169.728 240.884C169.644 240.631 169.715 240.363 169.889 240.185C170.01 239.788 170.122 238.419 170.251 236.85C170.976 228.018 172.902 204.558 187.697 170.652C206.303 128.01 238.09 84.8548 282.175 42.384C282.449 42.1209 282.884 42.1291 283.147 42.4021C283.411 42.6755 283.402 43.1106 283.129 43.374C235.764 89.0038 177.971 159.629 171.621 236.962C171.334 240.46 171.282 241.091 170.597 241.319C170.525 241.343 170.452 241.354 170.38 241.354Z" fill="#261F2A"/>
<path d="M213.47 127.22C213.106 127.22 212.803 126.936 212.784 126.569C212.764 126.19 213.055 125.866 213.434 125.847C244.636 124.214 264.386 118.977 275.46 114.872C287.45 110.426 292.128 106.315 292.174 106.274C292.455 106.021 292.89 106.045 293.144 106.327C293.397 106.61 293.374 107.043 293.092 107.297C292.9 107.47 288.249 111.579 276.069 116.112C264.895 120.27 244.97 125.573 213.506 127.219C213.494 127.22 213.482 127.22 213.47 127.22Z" fill="#261F2A"/>
<path d="M233.038 98.3864C232.896 98.3864 232.753 98.343 232.631 98.2523C225.749 93.1819 223.227 82.0793 225.134 65.2529C226.539 52.85 229.964 41.7547 229.999 41.6441C230.112 41.2811 230.497 41.0788 230.859 41.1921C231.222 41.3049 231.424 41.6901 231.311 42.0526C231.176 42.488 217.943 85.7223 233.446 97.1459C233.751 97.3709 233.817 97.8013 233.592 98.1069C233.457 98.2896 233.249 98.3864 233.038 98.3864Z" fill="#261F2A"/>
<path d="M185.145 179.235C184.945 179.235 184.747 179.148 184.611 178.98C176.106 168.481 174.721 154.071 175.057 143.831C175.419 132.782 177.81 124.067 177.834 123.98C177.936 123.615 178.315 123.401 178.68 123.502C179.046 123.604 179.26 123.983 179.159 124.348C179.135 124.434 176.783 133.016 176.429 143.907C176.105 153.903 177.447 167.952 185.679 178.115C185.918 178.41 185.873 178.842 185.578 179.081C185.45 179.184 185.297 179.235 185.145 179.235Z" fill="#261F2A"/>
</g>
</g>
<path d="M182.963 243.452C183.519 211.259 189.72 187.599 195.033 172.445C199.203 160.55 206.227 144.193 215.397 143.985C219.791 143.886 221.463 147.568 226.095 147.263C234.841 146.687 237.677 132.981 245.074 124.201C257.727 109.181 289.282 101.985 307.471 116.591C329.374 134.18 322.778 176.061 306.71 185.837C297.189 191.629 283.585 186.61 281.599 191.924C279.6 197.272 292.99 203.399 292.001 212.468C290.978 221.856 275.344 227.084 274.399 227.389C255.505 233.484 244.63 220.396 225.289 220.84C214.797 221.081 200.245 225.34 182.963 243.452Z" fill="url(#paint1_linear_544_5512)"/>
<mask id="mask1_544_5512" style="mask-type:luminance" maskUnits="userSpaceOnUse" x="182" y="108" width="140" height="136">
<path d="M182.963 243.452C183.519 211.259 189.72 187.599 195.033 172.445C199.203 160.55 206.227 144.193 215.397 143.985C219.791 143.886 221.463 147.568 226.095 147.263C234.841 146.687 237.677 132.981 245.074 124.201C257.727 109.181 289.282 101.985 307.471 116.591C329.374 134.18 322.778 176.061 306.71 185.837C297.189 191.629 283.585 186.61 281.599 191.924C279.6 197.272 292.99 203.399 292.001 212.468C290.978 221.856 275.344 227.084 274.399 227.389C255.505 233.484 244.63 220.396 225.289 220.84C214.797 221.081 200.245 225.34 182.963 243.452Z" fill="white"/>
</mask>
<g mask="url(#mask1_544_5512)">
<path d="M173.958 267.583L174.433 267.707C193.601 194.646 254.04 140.876 336.106 123.871L336.006 123.39C297.113 131.45 261.748 148.455 233.736 172.569C204.286 197.92 183.615 230.775 173.958 267.583Z" fill="#1C1820"/>
<path d="M175.222 155.688C185.378 173.679 191.973 205.844 189.922 227.389L190.41 227.435C192.469 205.806 185.847 173.512 175.649 155.447L175.222 155.688Z" fill="#1C1820"/>
<path d="M177.885 253.284L178.307 253.535C184.065 243.871 194.488 237.49 209.286 234.569C220.136 232.426 233.042 232.16 247.646 233.776L247.7 233.289C233.046 231.667 220.09 231.936 209.191 234.087C194.251 237.037 183.718 243.495 177.885 253.284Z" fill="#1C1820"/>
<path d="M237.845 169.301L238.253 169.574C250.044 151.916 249.688 129.591 247.312 113.972L246.827 114.046C249.19 129.579 249.549 151.775 237.845 169.301Z" fill="#1C1820"/>
<path d="M278.658 142.906L278.789 143.379C301.846 137.016 325.148 146.366 336.986 152.506L337.212 152.07C325.31 145.898 301.877 136.499 278.658 142.906Z" fill="#1C1820"/>
</g>
<path d="M171.779 261.634C171.025 263.418 171.555 265.226 172.911 265.798L173.23 265.934C174.585 266.506 176.252 265.627 177.006 263.843L228.56 141.844C229.314 140.06 228.827 138.149 227.472 137.577L227.152 137.442C225.797 136.869 224.087 137.851 223.333 139.635L171.779 261.634Z" fill="#1C1820"/>
<path d="M241.776 102.278C241.555 102.804 241.717 103.373 242.468 103.693C243.219 104.013 243.741 103.735 243.967 103.212C245.33 100.049 246.692 96.887 248.055 93.7247C248.281 93.201 248.11 92.6229 247.325 92.2883C246.54 91.9544 246.005 92.2318 245.784 92.7574C244.448 95.931 243.112 99.1046 241.776 102.278Z" fill="#1C1820"/>
<path d="M297.716 161.348C297.718 161.348 297.429 164.148 296.5 166.552C295.857 168.219 294.353 169.3 292.433 169.541C286.363 170.304 281.848 170.668 278.973 170.809C278.089 170.854 277.15 170.506 276.416 169.866C275.682 169.226 275.23 168.361 275.19 167.511C275.092 165.346 274.965 163.174 274.808 160.996C282.3 160.731 289.947 160.84 297.716 161.348Z" fill="#261F2A"/>
<path d="M274.891 159.577C274.896 159.579 273.728 163.718 272.271 166.492C271.437 168.084 269.563 168.864 267.515 168.527C260.147 167.132 240.881 164.069 225.346 155.538C223.264 154.371 221.578 152.493 221.841 150.417C222.339 146.494 223.303 145.219 223.308 145.221C240.516 147.934 257.848 152.674 274.891 159.577Z" fill="#1C1820"/>
<path d="M242.33 100.908C242.175 100.999 254.625 105.312 267.792 115.817C280.964 126.081 294.854 142.537 297.716 161.348C297.603 161.186 279.894 164.847 274.807 160.995C277.77 154.975 268.429 123.432 242.33 100.908Z" fill="#1C1820"/>
<path d="M242.33 100.908C235.968 115.67 229.627 130.441 223.308 145.221C223.302 145.291 231.312 148.251 241.56 151.984C251.866 155.629 264.41 160.047 274.807 160.995C281.44 144.495 264.654 120.029 242.33 100.908Z" fill="#261F2A"/>
<path d="M161.148 103.636C161.146 103.635 159.34 105.794 158.264 108.135C157.516 109.758 157.789 111.59 158.955 113.135C162.638 118.02 165.524 121.511 167.426 123.671C168.011 124.336 168.914 124.767 169.885 124.848C170.855 124.928 171.791 124.649 172.428 124.085C174.049 122.647 175.695 121.224 177.367 119.819C172.334 114.261 166.927 108.854 161.148 103.636Z" fill="#1C1820"/>
<path d="M178.326 118.77C178.321 118.768 176.167 122.49 175.194 125.468C174.633 127.175 175.38 129.063 177.049 130.297C183.184 134.609 198.808 146.289 215.753 151.484C218.042 152.164 220.563 152.064 221.868 150.429C224.335 147.337 224.577 145.757 224.573 145.755C210.633 135.306 195.154 126.18 178.326 118.77Z" fill="#261F2A"/>
<path d="M243.092 101.229C243.135 101.404 231.365 95.4819 214.655 93.3617C198.113 91.0693 176.632 92.5784 161.148 103.636C161.343 103.604 171.06 118.855 177.367 119.818C179.62 113.498 208.75 98.2123 243.092 101.229Z" fill="#261F2A"/>
<path d="M243.092 101.23C236.94 116.08 230.767 130.922 224.573 145.755C224.526 145.808 216.821 142.127 207.001 137.38C197.205 132.53 185.294 126.614 177.367 119.818C184.577 103.562 213.821 98.5476 243.092 101.23Z" fill="#1C1820"/>
<path d="M323.834 305.092C323.84 305.077 323.846 305.062 323.852 305.047C325.362 301.329 324.14 295.435 324.14 295.435L322.711 296.193C321.767 294.298 320.412 292.209 318.592 289.895C298.608 264.495 277.898 265.734 310.941 252.105C314.761 250.529 317.093 248.945 318.064 247.379L318.065 247.379C318.065 247.379 319.69 245.442 318.244 241.356C317.588 241.356 317.029 241.861 316.614 242.412C304.64 232.562 239.486 224.673 155.942 226.086C90.2527 227.196 60.3808 234.72 46.9759 240.597C45.0415 241.446 43.5061 242.936 42.5568 244.763C42.3458 244.454 42.0881 244.14 41.7696 243.821C40.959 245.893 41.4885 250.612 41.4885 250.612C41.4885 250.612 41.528 250.58 41.5937 250.522C42.0912 253.957 44.4151 256.857 47.6638 257.967C65.6214 264.103 91.9204 251.922 56.9053 292.993C54.5292 295.78 52.923 298.341 52.0058 300.696C51.8172 299.356 51.6803 298.037 51.6803 296.912C50.3011 300.833 51.119 306.199 51.119 306.199C51.1224 306.205 51.1253 306.21 51.1287 306.216C54.5639 340.122 238.023 318.768 268.887 316.534C293.533 314.751 318.8 314.892 323.578 305.642C323.578 305.642 323.578 305.643 323.579 305.643C323.672 305.467 323.755 305.281 323.834 305.092Z" fill="url(#paint2_linear_544_5512)"/>
<path d="M255.429 306.102C228.124 308.221 51.0349 330.493 86.4083 285.949C114.326 250.798 93.3592 261.225 79.0428 255.971C77.1444 255.271 75.6365 253.753 74.8134 251.827C74.4048 250.885 74.1646 249.838 74.1225 248.748C74.0024 245.446 75.7446 242.404 78.4962 241.109C89.1839 236.079 112.999 229.636 165.374 228.688C247.824 227.189 307.811 237.894 292.731 248.878C291.776 249.572 290.527 250.266 288.959 250.959C262.615 262.619 279.124 261.559 295.056 283.298C310.989 305.043 282.729 303.977 255.429 306.102Z" fill="url(#paint3_linear_544_5512)"/>
<path d="M255.429 306.102C228.124 308.221 51.035 330.492 86.4084 285.949C114.326 250.798 93.3593 261.224 79.0429 255.971C77.1445 255.271 75.6366 253.753 74.8135 251.826C75.5524 250.11 76.8441 248.698 78.4962 247.923C89.1839 242.893 112.998 236.45 165.374 235.502C230.407 234.319 281.467 240.731 292.731 248.877C291.776 249.571 290.527 250.265 288.958 250.959C262.615 262.618 279.124 261.559 295.056 283.297C310.989 305.042 282.729 303.977 255.429 306.102Z" fill="url(#paint4_linear_544_5512)"/>
<path d="M318.592 285.557C298.608 260.926 277.898 262.127 310.941 248.91C343.983 235.693 265.883 221.876 155.942 223.678C90.2527 224.755 60.3808 232.051 46.9759 237.751C43.526 239.217 41.3432 242.665 41.4961 246.411C41.6491 250.156 44.1055 253.416 47.6639 254.595C65.6215 260.546 91.9205 248.733 56.9054 288.561C12.5393 339.026 234.643 313.794 268.887 311.39C303.131 308.987 338.576 310.189 318.592 285.557Z" fill="#1C1820"/>
<path opacity="0.5" d="M255.429 301.273C228.124 303.328 51.0349 324.926 86.4083 281.73C114.326 247.642 93.3592 257.753 79.0428 252.659C77.1444 251.98 75.6365 250.508 74.8134 248.64C74.4048 247.726 74.1646 246.711 74.1225 245.654C74.0024 242.452 75.7446 239.502 78.4962 238.246C89.1839 233.368 112.999 227.12 165.374 226.201C247.824 224.747 307.811 235.128 292.731 245.78C291.776 246.453 290.527 247.126 288.959 247.798C262.615 259.105 279.124 258.078 295.056 279.159C310.989 300.246 282.729 299.213 255.429 301.273Z" fill="#1C1820"/>
<path d="M255.429 301.273C228.124 303.328 51.035 324.926 86.4084 281.73C114.326 247.642 93.3593 257.753 79.0429 252.659C77.1445 251.98 75.6366 250.508 74.8135 248.64C75.5524 246.976 76.8441 245.606 78.4962 244.855C89.1839 239.977 112.998 233.728 165.374 232.809C230.407 231.662 281.467 237.88 292.731 245.78C291.776 246.453 290.527 247.126 288.958 247.798C262.615 259.105 279.124 258.078 295.056 279.159C310.989 300.246 282.729 299.213 255.429 301.273Z" fill="url(#paint5_linear_544_5512)"/>
<path d="M97.713 297.568C94.1872 296.77 91.867 295.303 90.8174 293.206C88.3674 288.312 93.537 281.3 98.5366 274.519C103.344 267.999 108.315 261.257 105.99 256.921C104.202 253.585 98.4483 252.146 96.5576 251.674C93.5593 250.925 90.6844 250.964 88.5857 250.995C86.3918 251.025 84.9427 251.046 84.6577 250.157C84.4297 249.446 85.088 248.535 86.6703 247.372C92.9103 242.79 110.165 242.066 119.895 242.042L119.896 242.562C112.114 242.581 93.3274 243.129 86.9793 247.791C85.1278 249.151 85.0851 249.787 85.1525 249.998C85.3204 250.521 86.7576 250.5 88.5784 250.475C90.7063 250.445 93.6194 250.405 96.6813 251.169C98.6296 251.656 104.551 253.136 106.448 256.675C108.928 261.301 104.084 267.872 98.955 274.828C94.0484 281.483 88.9748 288.364 91.2821 292.973C92.2589 294.924 94.4611 296.299 97.8278 297.06L97.713 297.568Z" fill="#261F2A"/>
<path d="M73.4784 295.743L72.8536 297.334C72.4027 298.482 72.6911 299.79 73.5892 300.635C75.7676 302.686 80.0008 306.149 83.5898 305.972C88.6729 305.722 80.9206 300.983 79.6331 299.173C76.2233 294.379 73.4784 295.743 73.4784 295.743Z" fill="url(#paint6_linear_544_5512)"/>
<path d="M78.1681 286.506C78.1681 286.506 75.5851 290.223 74.2542 295.923L76.4546 298.195L81.1791 291.989L78.1681 286.506Z" fill="url(#paint7_linear_544_5512)"/>
<path d="M111.664 181.589C116.184 188.027 126.763 205.024 125.7 227.866C123.699 270.839 82.437 292.762 80.4238 293.79C78.9099 291.67 77.396 289.551 75.8821 287.431C75.7048 281.515 76.3256 272.766 81.035 264.159C86.5479 254.084 93.2799 252.214 96.9512 245.704C100.972 238.573 101.522 225.518 84.4857 199.491C93.5452 193.523 102.604 187.556 111.664 181.589Z" fill="url(#paint8_linear_544_5512)"/>
<path d="M132.347 305.467L133.994 312.982C134.27 313.904 135.118 314.535 136.08 314.534L142.706 314.526C144.592 314.524 145.581 312.287 144.315 310.89L138.758 304.763L132.347 305.467Z" fill="url(#paint9_linear_544_5512)"/>
<path d="M129.004 298.439L134.008 306.313C134.289 306.754 134.775 307.021 135.298 307.021H136.143C137.17 307.021 137.905 306.028 137.604 305.046L135.374 297.754L129.004 298.439Z" fill="url(#paint10_linear_544_5512)"/>
<path d="M75.4082 179.276C74.9089 182.437 74.3256 187.723 74.9512 194.132C77.1386 216.541 91.0014 220.907 101.463 246.928C108.321 263.983 105.564 270.064 114.948 284.411C120.066 292.235 125.664 297.732 129.599 301.156C132.106 300.831 134.612 300.506 137.118 300.181C135.047 293.084 132.097 282.849 128.661 270.469C118.274 233.034 116.315 222.349 115.417 217.03C113.995 208.609 112.336 196.497 111.664 181.589C112.923 179.128 113.18 177.214 112.434 175.847C110.08 171.536 97.7383 172.679 75.4082 179.276Z" fill="url(#paint11_linear_544_5512)"/>
<path d="M78.9424 100.807C72.3437 105.12 69.8006 112.495 66.4945 142.022C60.8313 192.598 65.4839 196.038 67.4088 196.875C72.4641 199.072 75.6779 190.684 90.0357 187.961C104.244 185.266 114.617 190.915 117.462 186.361C119.039 183.838 116.108 181.699 115.331 176.454C113.118 161.502 133.204 153.606 139.175 129.223C140.211 124.991 140.069 123.34 140.008 122.783C138.592 109.673 117.953 100.93 102.97 98.7337C93.9575 97.4125 85.936 96.2366 78.9424 100.807Z" fill="url(#paint12_linear_544_5512)"/>
<path d="M123.4 92.0996C123.4 92.0996 113.901 99.6988 100.815 98.7172C100.815 98.7172 111.682 110.481 127.714 109.567C127.714 109.567 119.749 106.099 125.234 97.5479L123.4 92.0996Z" fill="url(#paint13_linear_544_5512)"/>
<path d="M132.631 95.5011C134.641 94.613 136.207 91.9771 135.822 89.5431C135.491 87.4486 133.807 86.2353 132.799 85.5085C129.877 83.4031 125.208 82.5054 122.231 84.6141C120.467 85.8639 120.247 90.3849 120.166 91.175C120.076 92.0686 120.503 92.6309 120.722 93.4669C121.024 94.6259 121.488 96.459 122.218 99.4992C122.692 98.9875 123.32 98.3767 124.111 97.7764C124.416 97.5453 125.62 96.6511 126.986 96.1147C129.722 95.0388 130.726 96.3425 132.631 95.5011Z" fill="url(#paint14_linear_544_5512)"/>
<path d="M120.52 96.3373C120.52 96.3373 120.692 100.853 124.928 102.871C128.721 104.677 133.843 96.7685 132.478 93.7207C132.023 92.704 130.596 91.59 129.127 91.2364C128.259 91.0276 127.831 91.1973 126.42 90.8284C125.118 90.4883 124.868 90.183 124.363 90.2799C123.732 90.4015 122.923 91.1114 122.299 93.9113C121.996 92.8142 121.309 92.0746 120.559 92.0231C120.439 92.0152 120.092 92.0456 119.806 92.2256C118.771 92.8772 118.958 94.553 120.52 96.3373Z" fill="url(#paint15_linear_544_5512)"/>
<path d="M124.472 89.6965C124.575 89.9267 123.668 90.2838 123.107 91.1935C122.018 92.9589 122.636 96.1538 124.401 97.3817C125.445 98.1076 126.12 97.6114 128.054 98.4386C129.251 98.9508 130.112 99.6203 130.632 100.08C130.097 102.385 128.452 104.062 126.613 104.239C124.633 104.429 123.144 102.811 122.521 102.134C122.104 101.681 120.768 100.234 120.751 98.2576C120.734 96.198 122.133 95.7444 121.702 94.1172C121.485 93.2964 120.937 92.6876 120.855 91.2878C120.833 90.9074 120.852 90.5928 120.872 90.3852C122.376 89.9121 124.323 89.363 124.472 89.6965Z" fill="url(#paint16_linear_544_5512)"/>
<path opacity="0.3" d="M105.006 178.019C99.9625 167.06 107.086 160.627 102.949 148.536C97.4671 132.514 81.132 132.62 77.2366 119.395C75.9019 114.864 75.9712 108.572 80.5926 99.8467C80.0367 100.135 79.4861 100.452 78.9424 100.807C72.3437 105.12 69.8006 112.495 66.4945 142.022C60.8313 192.598 65.4839 196.038 67.4088 196.875C72.4641 199.072 75.6779 190.684 90.0357 187.961C100.31 186.013 108.577 188.425 113.444 188.189C110.024 185.599 106.969 182.284 105.006 178.019Z" fill="url(#paint17_linear_544_5512)"/>
<path d="M139.632 180.419C139.662 182.562 140.018 185.141 141.65 186.012C145.647 188.144 156.247 179.483 160.171 171.399C171.315 148.44 139.775 107.118 130.639 110.213C125.722 111.879 123.911 127.557 128.662 139.279C133.572 151.397 143.661 154.762 144.432 165.563C144.883 171.884 141.889 177.211 139.632 180.419Z" fill="url(#paint18_linear_544_5512)"/>
<path d="M91.4071 98.5961C89.17 95.6472 79.3249 98.595 72.6655 102.253C51.2246 114.031 36.5014 147.62 47.9816 161.22C54.9844 169.516 70.4346 168.832 79.7059 166.105C91.0222 162.777 97.5419 155.11 99.8635 152.078C99.1778 150.707 98.4922 149.335 97.8065 147.964C78.7042 151.029 75.0301 145.865 74.2654 144.536C71.5398 139.798 75.7889 131.66 83.8647 116.195C89.6337 105.147 93.0786 100.799 91.4071 98.5961Z" fill="url(#paint19_linear_544_5512)"/>
<path d="M178.2 257.632C177.623 257.632 177.059 257.34 176.736 256.812L73.5251 87.8586C73.0316 87.0507 73.2861 85.9956 74.0939 85.502C74.9014 85.0079 75.9564 85.2628 76.4505 86.0705L179.661 255.024C180.155 255.832 179.9 256.887 179.093 257.38C178.814 257.551 178.505 257.632 178.2 257.632Z" fill="url(#paint20_linear_544_5512)"/>
<path d="M98.4604 148.794C98.4604 148.794 101.886 146.594 103.595 143.222C105.304 139.849 106.871 136.881 108.73 137.369C110.589 137.858 112.44 143.05 112.065 144.336C112.065 144.336 109.157 143.22 108.73 145.453C108.302 147.685 105.077 148.194 105.077 148.194L99.8635 152.078L98.4604 148.794Z" fill="url(#paint21_linear_544_5512)"/>
<path d="M141.886 181.689C141.671 181.203 141.186 180.89 140.654 180.902C139.408 180.932 137.12 180.84 135.881 179.874C134.12 178.503 130.674 179.329 128.896 179.874C127.119 180.419 129.402 182.008 131.689 183.013C133.975 184.019 135.506 185.884 137.527 185.99C138.938 186.064 140.789 184.584 141.778 183.684C142.199 183.299 142.329 182.691 142.098 182.169L141.886 181.689Z" fill="url(#paint22_linear_544_5512)"/>
<path opacity="0.5" d="M144.578 263.706C143.857 264.251 143.495 265.147 143.637 266.04C144.926 274.12 151.56 313.429 167.838 316.178C200.07 321.622 218.99 296.186 230.371 275.964L211.296 252.334L148.19 260.976L144.578 263.706Z" fill="#261F2A"/>
<path opacity="0.5" d="M162.683 290.292L158.686 288.005C158.686 288.005 150.129 275.107 143.658 265.185C143.603 265.462 143.591 265.751 143.637 266.04C144.926 274.12 151.56 313.429 167.838 316.178C197.74 321.229 216.184 299.702 227.781 280.418L162.683 290.292Z" fill="#261F2A"/>
<path d="M164.033 291.668C161.254 291.668 158.623 290.357 156.945 288.068L143.219 269.347C141.952 267.618 141.685 265.404 142.505 263.423C143.325 261.443 145.079 260.065 147.198 259.738L207.116 250.496C210.207 250.019 213.347 251.235 215.311 253.669L230.41 272.377C231.78 274.074 232.127 276.302 231.34 278.336C230.552 280.371 228.795 281.783 226.639 282.116L165.389 291.564C164.935 291.634 164.482 291.668 164.033 291.668ZM208.452 253.143C208.147 253.143 207.841 253.166 207.536 253.213L147.617 262.455C146.456 262.634 145.494 263.39 145.045 264.475C144.596 265.56 144.742 266.774 145.437 267.721L159.162 286.442C160.503 288.271 162.729 289.192 164.97 288.847L226.22 279.399C227.393 279.218 228.348 278.45 228.776 277.344C229.204 276.238 229.015 275.026 228.271 274.104L213.172 255.395C212.015 253.962 210.265 253.143 208.452 253.143Z" fill="#1C1820"/>
<path d="M167.627 301.373C176.696 304.657 188.749 295.317 190.631 286.499C191.961 280.268 187.655 276.903 190.108 270.84C192.437 265.081 197.274 265.758 200.201 260.081C203.29 254.09 202.787 243.866 196.424 239.557C189.301 234.733 177.872 239.378 174.411 245.877C171.071 252.148 176.646 257.344 172.884 264.031C169.585 269.894 163.942 268.312 160.353 273.611C155.165 281.272 157.954 297.87 167.627 301.373Z" fill="url(#paint23_linear_544_5512)"/>
<mask id="mask2_544_5512" style="mask-type:luminance" maskUnits="userSpaceOnUse" x="157" y="237" width="46" height="66">
<path d="M167.627 301.373C176.696 304.657 188.749 295.317 190.631 286.499C191.961 280.268 187.655 276.903 190.108 270.84C192.437 265.081 197.274 265.758 200.201 260.081C203.29 254.09 202.787 243.866 196.424 239.557C189.301 234.733 177.872 239.378 174.411 245.877C171.071 252.148 176.646 257.344 172.884 264.031C169.585 269.894 163.942 268.312 160.353 273.611C155.165 281.272 157.954 297.87 167.627 301.373Z" fill="white"/>
</mask>
<g mask="url(#mask2_544_5512)">
<g opacity="0.77">
<path d="M167.89 305.413C167.953 305.407 168.007 305.359 168.018 305.294C172.281 280.253 180.545 262.156 186.727 251.383C193.422 239.717 199.178 233.9 199.235 233.843C199.292 233.786 199.292 233.695 199.235 233.638C199.179 233.582 199.087 233.582 199.031 233.639C198.973 233.696 193.19 239.541 186.476 251.24C182.534 258.108 179.046 265.623 176.108 273.575C172.436 283.515 169.618 294.17 167.733 305.245C167.72 305.324 167.773 305.398 167.851 305.412C167.864 305.414 167.877 305.414 167.89 305.413Z" fill="#261F2A"/>
<path d="M183.602 257.005C183.631 257.002 183.66 256.99 183.684 256.969C183.743 256.916 183.749 256.825 183.696 256.765C179.831 252.432 179.887 245.699 180.616 240.814C181.407 235.501 183.143 231.163 183.16 231.119C183.19 231.045 183.154 230.961 183.08 230.931C183.006 230.902 182.922 230.937 182.892 231.011C182.875 231.055 181.128 235.42 180.331 240.765C179.592 245.714 179.54 252.54 183.48 256.958C183.512 256.993 183.558 257.01 183.602 257.005Z" fill="#261F2A"/>
<path d="M175.991 289.077C181.922 288.489 186.814 285.384 190.12 282.572C194.579 278.779 197.189 274.686 197.215 274.645C197.257 274.578 197.237 274.489 197.17 274.446C197.102 274.404 197.013 274.424 196.97 274.491C196.945 274.532 194.354 278.592 189.927 282.357C185.85 285.823 179.335 289.742 171.449 288.723C171.37 288.713 171.297 288.769 171.287 288.848C171.277 288.927 171.332 288.999 171.412 289.01C172.995 289.214 174.525 289.223 175.991 289.077Z" fill="#261F2A"/>
<path d="M169.107 298.943C169.137 298.94 169.167 298.927 169.191 298.904C169.249 298.85 169.252 298.759 169.198 298.7C156.664 285.31 163.751 264.347 163.897 264.02C163.936 263.961 163.926 263.88 163.871 263.832C163.811 263.779 163.719 263.786 163.667 263.846C163.557 263.973 161.737 269.314 161.516 276.414C161.318 282.818 162.453 291.917 168.987 298.898C169.019 298.932 169.064 298.947 169.107 298.943Z" fill="#261F2A"/>
</g>
</g>
<path d="M184.321 301.618C189.749 305.931 200.099 302.326 203.399 296.748C205.731 292.806 203.567 289.528 206.625 285.958C209.53 282.567 212.671 284.136 215.965 280.937C219.44 277.562 221.437 270.481 218.088 266.088C214.338 261.171 205.488 261.721 201.643 265.357C197.932 268.866 200.542 273.682 196.448 277.378C192.859 280.618 189.376 278.248 185.718 281.038C180.43 285.07 178.532 297.018 184.321 301.618Z" fill="url(#paint24_linear_544_5512)"/>
<mask id="mask3_544_5512" style="mask-type:luminance" maskUnits="userSpaceOnUse" x="180" y="262" width="40" height="42">
<path d="M184.321 301.618C189.749 305.931 200.099 302.326 203.399 296.748C205.731 292.806 203.567 289.528 206.625 285.958C209.53 282.567 212.671 284.136 215.965 280.937C219.44 277.562 221.437 270.481 218.088 266.088C214.338 261.171 205.488 261.721 201.643 265.357C197.932 268.866 200.542 273.682 196.448 277.378C192.859 280.618 189.376 278.248 185.718 281.038C180.43 285.07 178.532 297.018 184.321 301.618Z" fill="white"/>
</mask>
<g mask="url(#mask3_544_5512)">
<g opacity="0.77">
<path d="M183.576 304.431C183.62 304.441 183.668 304.421 183.69 304.379C192.325 288.292 202.097 277.852 208.774 271.927C216.005 265.51 221.259 262.863 221.311 262.837C221.362 262.812 221.383 262.75 221.357 262.698C221.332 262.647 221.27 262.626 221.218 262.652C221.166 262.678 215.888 265.337 208.636 271.772C204.379 275.55 200.282 279.872 196.461 284.618C191.684 290.55 187.326 297.166 183.507 304.28C183.48 304.331 183.499 304.394 183.55 304.421C183.558 304.426 183.567 304.429 183.576 304.431Z" fill="#261F2A"/>
<path d="M205.359 275.043C205.379 275.047 205.401 275.046 205.422 275.037C205.475 275.014 205.5 274.953 205.477 274.901C203.835 271.064 205.414 266.489 207.029 263.327C208.784 259.888 210.959 257.329 210.981 257.304C211.018 257.26 211.013 257.195 210.969 257.157C210.926 257.12 210.86 257.125 210.823 257.169C210.801 257.194 208.612 259.769 206.846 263.229C205.21 266.431 203.612 271.07 205.286 274.982C205.3 275.014 205.327 275.035 205.359 275.043Z" fill="#261F2A"/>
<path d="M192.833 295.154C197.009 296.111 201.054 295.114 203.949 293.955C207.856 292.391 210.57 290.199 210.597 290.177C210.642 290.141 210.648 290.076 210.612 290.031C210.576 289.987 210.511 289.98 210.466 290.016C210.439 290.038 207.745 292.212 203.867 293.764C200.296 295.193 194.96 296.372 189.82 293.874C189.768 293.849 189.706 293.87 189.681 293.922C189.656 293.973 189.677 294.035 189.729 294.06C190.761 294.562 191.802 294.918 192.833 295.154Z" fill="#261F2A"/>
<path d="M185.885 300.301C185.907 300.306 185.93 300.304 185.952 300.294C186.004 300.27 186.027 300.209 186.003 300.157C180.527 288.164 190.153 275.502 190.327 275.313C190.367 275.282 190.379 275.224 190.352 275.179C190.323 275.13 190.259 275.113 190.21 275.142C190.106 275.204 187.643 278.426 185.869 283.214C184.268 287.532 182.959 293.991 185.814 300.243C185.828 300.273 185.855 300.294 185.885 300.301Z" fill="#261F2A"/>
</g>
</g>
<path opacity="0.5" d="M162.683 290.292L158.686 288.005C158.686 288.005 150.129 275.107 143.658 265.185C143.603 265.462 143.591 265.751 143.637 266.04C144.926 274.12 151.56 313.429 167.838 316.178C197.74 321.229 216.184 299.702 227.781 280.418L162.683 290.292Z" fill="#261F2A"/>
<path d="M228.993 276.257C228.981 276.622 228.914 276.988 228.776 277.344C228.348 278.45 227.392 279.218 226.22 279.399L164.97 288.847C162.729 289.192 160.503 288.271 159.162 286.442L145.437 267.722C144.742 266.774 144.595 265.561 145.045 264.475C145.494 263.39 146.456 262.635 147.617 262.456L154.824 261.344C154.465 260.474 154.115 259.601 153.772 258.725L147.198 259.739C145.079 260.065 143.325 261.443 142.505 263.424C141.685 265.404 141.952 267.619 143.219 269.347L156.945 288.068C158.623 290.357 161.254 291.668 164.033 291.668C164.482 291.668 164.935 291.634 165.389 291.564L226.639 282.116C228.795 281.784 230.552 280.371 231.34 278.337C231.486 277.96 231.592 277.576 231.661 277.191C230.759 276.91 229.867 276.605 228.993 276.257Z" fill="#1C1820"/>
<defs>
<linearGradient id="paint0_linear_544_5512" x1="156.924" y1="142.719" x2="285.208" y2="142.719" gradientUnits="userSpaceOnUse">
<stop offset="0.0036" stop-color="#E38DDD"/>
<stop offset="1" stop-color="#9571F6"/>
</linearGradient>
<linearGradient id="paint1_linear_544_5512" x1="285.025" y1="107.621" x2="192.239" y2="313.125" gradientUnits="userSpaceOnUse">
<stop stop-color="#FFC444"/>
<stop offset="0.9964" stop-color="#F36F56"/>
</linearGradient>
<linearGradient id="paint2_linear_544_5512" x1="41.3186" y1="275.569" x2="324.607" y2="275.569" gradientUnits="userSpaceOnUse">
<stop stop-color="#444B8C"/>
<stop offset="0.9964" stop-color="#26264F"/>
</linearGradient>
<linearGradient id="paint3_linear_544_5512" x1="186.513" y1="313.925" x2="187.276" y2="228.572" gradientUnits="userSpaceOnUse">
<stop stop-color="#2C759E"/>
<stop offset="1" stop-color="#051042"/>
</linearGradient>
<linearGradient id="paint4_linear_544_5512" x1="204.977" y1="193.268" x2="158.123" y2="404.57" gradientUnits="userSpaceOnUse">
<stop stop-color="#2C759E"/>
<stop offset="1" stop-color="#051042"/>
</linearGradient>
<linearGradient id="paint5_linear_544_5512" x1="204.644" y1="190.925" x2="158.687" y2="398.181" gradientUnits="userSpaceOnUse">
<stop stop-color="#AA80F9"/>
<stop offset="0.9964" stop-color="#6165D7"/>
</linearGradient>
<linearGradient id="paint6_linear_544_5512" x1="72.6436" y1="300.771" x2="85.2986" y2="300.771" gradientUnits="userSpaceOnUse">
<stop stop-color="#40447E"/>
<stop offset="0.9964" stop-color="#3C3B6B"/>
</linearGradient>
<linearGradient id="paint7_linear_544_5512" x1="76.3567" y1="286" x2="83.2134" y2="326.112" gradientUnits="userSpaceOnUse">
<stop stop-color="#FFC444"/>
<stop offset="0.9964" stop-color="#F36F56"/>
</linearGradient>
<linearGradient id="paint8_linear_544_5512" x1="168.882" y1="255.555" x2="132.542" y2="246.642" gradientUnits="userSpaceOnUse">
<stop stop-color="#40447E"/>
<stop offset="0.9964" stop-color="#3C3B6B"/>
</linearGradient>
<linearGradient id="paint9_linear_544_5512" x1="132.347" y1="309.648" x2="144.883" y2="309.648" gradientUnits="userSpaceOnUse">
<stop stop-color="#40447E"/>
<stop offset="0.9964" stop-color="#3C3B6B"/>
</linearGradient>
<linearGradient id="paint10_linear_544_5512" x1="129.079" y1="276.988" x2="135.936" y2="317.099" gradientUnits="userSpaceOnUse">
<stop stop-color="#FFD25D"/>
<stop offset="0.9964" stop-color="#F36F56"/>
</linearGradient>
<linearGradient id="paint11_linear_544_5512" x1="105.955" y1="235.489" x2="50.7587" y2="227.604" gradientUnits="userSpaceOnUse">
<stop stop-color="#40447E"/>
<stop offset="0.9964" stop-color="#3C3B6B"/>
</linearGradient>
<linearGradient id="paint12_linear_544_5512" x1="109.759" y1="170.165" x2="66.2192" y2="92.3418" gradientUnits="userSpaceOnUse">
<stop stop-color="#FF9085"/>
<stop offset="1" stop-color="#FB6FBB"/>
</linearGradient>
<linearGradient id="paint13_linear_544_5512" x1="100.815" y1="100.859" x2="127.714" y2="100.859" gradientUnits="userSpaceOnUse">
<stop stop-color="#FFC444"/>
<stop offset="0.9964" stop-color="#F36F56"/>
</linearGradient>
<linearGradient id="paint14_linear_544_5512" x1="109.509" y1="104.95" x2="131.814" y2="86.5445" gradientUnits="userSpaceOnUse">
<stop stop-color="#311944"/>
<stop offset="1" stop-color="#6B3976"/>
</linearGradient>
<linearGradient id="paint15_linear_544_5512" x1="127.042" y1="92.4698" x2="109.724" y2="127.7" gradientUnits="userSpaceOnUse">
<stop stop-color="#FFC444"/>
<stop offset="0.9964" stop-color="#F36F56"/>
</linearGradient>
<linearGradient id="paint16_linear_544_5512" x1="111.717" y1="107.646" x2="134.044" y2="89.2213" gradientUnits="userSpaceOnUse">
<stop stop-color="#311944"/>
<stop offset="1" stop-color="#6B3976"/>
</linearGradient>
<linearGradient id="paint17_linear_544_5512" x1="63.7798" y1="148.542" x2="113.444" y2="148.542" gradientUnits="userSpaceOnUse">
<stop stop-color="#FF9085"/>
<stop offset="1" stop-color="#FB6FBB"/>
</linearGradient>
<linearGradient id="paint18_linear_544_5512" x1="143.163" y1="151.476" x2="99.6227" y2="73.6532" gradientUnits="userSpaceOnUse">
<stop stop-color="#FF9085"/>
<stop offset="1" stop-color="#FB6FBB"/>
</linearGradient>
<linearGradient id="paint19_linear_544_5512" x1="96.2904" y1="177.7" x2="52.7509" y2="99.877" gradientUnits="userSpaceOnUse">
<stop stop-color="#FF9085"/>
<stop offset="1" stop-color="#FB6FBB"/>
</linearGradient>
<linearGradient id="paint20_linear_544_5512" x1="73.2735" y1="171.441" x2="179.913" y2="171.441" gradientUnits="userSpaceOnUse">
<stop stop-color="#311944"/>
<stop offset="1" stop-color="#6B3976"/>
</linearGradient>
<linearGradient id="paint21_linear_544_5512" x1="104.709" y1="159.61" x2="101.624" y2="230.233" gradientUnits="userSpaceOnUse">
<stop stop-color="#FFC444"/>
<stop offset="0.9964" stop-color="#F36F56"/>
</linearGradient>
<linearGradient id="paint22_linear_544_5512" x1="136.137" y1="160.983" x2="133.051" y2="231.606" gradientUnits="userSpaceOnUse">
<stop stop-color="#FFD25D"/>
<stop offset="0.9964" stop-color="#F36F56"/>
</linearGradient>
<linearGradient id="paint23_linear_544_5512" x1="179.327" y1="246.999" x2="181.522" y2="324.472" gradientUnits="userSpaceOnUse">
<stop stop-color="#FFD25D"/>
<stop offset="0.9964" stop-color="#F36F56"/>
</linearGradient>
<linearGradient id="paint24_linear_544_5512" x1="199.903" y1="268.579" x2="201.291" y2="317.579" gradientUnits="userSpaceOnUse">
<stop stop-color="#FF9085"/>
<stop offset="1" stop-color="#FB6FBB"/>
</linearGradient>
</defs>
</svg>
