<svg width="40" height="26" viewBox="0 0 40 26" fill="none" xmlns="http://www.w3.org/2000/svg">
<g id="Symbol">
<path id="Vector" d="M25.4084 3.29834H14.5923V22.7353H25.4084V3.29834Z" fill="#FF5F00"/>
<path id="Vector_2" d="M15.279 13.0176C15.2772 11.1456 15.7014 9.29788 16.5194 7.61414C17.3374 5.9304 18.5277 4.45481 20.0002 3.2991C18.1767 1.86575 15.9867 0.974374 13.6805 0.726848C11.3743 0.479322 9.04498 0.885638 6.95879 1.89935C4.8726 2.91307 3.1137 4.49328 1.88314 6.45937C0.652576 8.42547 0 10.6981 0 13.0176C0 15.337 0.652576 17.6097 1.88314 19.5758C3.1137 21.5418 4.8726 23.1221 6.95879 24.1358C9.04498 25.1495 11.3743 25.5558 13.6805 25.3083C15.9867 25.0608 18.1767 24.1694 20.0002 22.736C18.5277 21.5803 17.3374 20.1047 16.5194 18.421C15.7014 16.7372 15.2773 14.8895 15.279 13.0176Z" fill="#EB001B"/>
<path id="Vector_3" d="M40.0001 13.0176C40.0002 15.337 39.3477 17.6096 38.1172 19.5757C36.8867 21.5418 35.1279 23.122 33.0417 24.1357C30.9556 25.1495 28.6263 25.5558 26.3201 25.3083C24.014 25.0608 21.824 24.1694 20.0005 22.736C21.4717 21.5791 22.6611 20.1033 23.479 18.4198C24.2968 16.7364 24.7217 14.8892 24.7217 13.0176C24.7217 11.1459 24.2968 9.29876 23.479 7.61528C22.6611 5.9318 21.4717 4.45598 20.0005 3.2991C21.824 1.86575 24.014 0.974369 26.3201 0.726846C28.6263 0.479323 30.9556 0.885646 33.0417 1.89937C35.1279 2.9131 36.8867 4.49332 38.1172 6.45941C39.3477 8.42551 40.0002 10.6981 40.0001 13.0176Z" fill="#F79E1B"/>
<path id="Vector_4" d="M38.8207 20.6771V20.2791H38.9812V20.1981H38.5725V20.2791H38.733V20.6771H38.8207ZM39.6141 20.6771V20.1973H39.4888L39.3447 20.5273L39.2006 20.1973H39.0753V20.6771H39.1637V20.3152L39.2988 20.6272H39.3906L39.5257 20.3144V20.6771H39.6141Z" fill="#F79E1B"/>
</g>
</svg>
