<svg width="206" height="189" viewBox="0 0 206 189" fill="none" xmlns="http://www.w3.org/2000/svg">
<g id="Frame 427321165">
<rect id="Rectangle 34624200" x="68" y="64" width="70" height="71" fill="#FCFCFC"/>
<path id="Vector" d="M69.4403 188.144C71.7484 188.144 73.6194 186.273 73.6194 183.965C73.6194 181.657 71.7484 179.786 69.4403 179.786C67.1323 179.786 65.2612 181.657 65.2612 183.965C65.2612 186.273 67.1323 188.144 69.4403 188.144Z" fill="#7E49FF"/>
<path id="Vector_2" d="M116.132 177.084C118.612 177.084 120.623 175.073 120.623 172.593C120.623 170.112 118.612 168.102 116.132 168.102C113.651 168.102 111.64 170.112 111.64 172.593C111.64 175.073 113.651 177.084 116.132 177.084Z" fill="#7E49FF"/>
<path id="Vector_3" d="M155.912 159.76C157.683 159.76 159.12 158.324 159.12 156.552C159.12 154.781 157.683 153.344 155.912 153.344C154.14 153.344 152.704 154.781 152.704 156.552C152.704 158.324 154.14 159.76 155.912 159.76Z" fill="#7E49FF"/>
<path id="Vector_4" d="M56.4618 163.611C59.2966 163.611 61.5946 161.312 61.5946 158.478C61.5946 155.643 59.2966 153.345 56.4618 153.345C53.6269 153.345 51.3289 155.643 51.3289 158.478C51.3289 161.312 53.6269 163.611 56.4618 163.611Z" fill="#7E49FF"/>
<path id="Vector_5" d="M15.078 129.605C17.7356 129.605 19.89 127.451 19.89 124.793C19.89 122.135 17.7356 119.981 15.078 119.981C12.4203 119.981 10.2659 122.135 10.2659 124.793C10.2659 127.451 12.4203 129.605 15.078 129.605Z" fill="#7E49FF"/>
<path id="Vector_6" d="M171.952 137.946C174.078 137.946 175.802 136.223 175.802 134.097C175.802 131.971 174.078 130.247 171.952 130.247C169.826 130.247 168.102 131.971 168.102 134.097C168.102 136.223 169.826 137.946 171.952 137.946Z" fill="#7E49FF"/>
<path id="Vector_7" d="M200.825 130.246C203.659 130.246 205.957 127.948 205.957 125.113C205.957 122.279 203.659 119.98 200.825 119.98C197.99 119.98 195.692 122.279 195.692 125.113C195.692 127.948 197.99 130.246 200.825 130.246Z" fill="#7E49FF"/>
<path id="Vector_8" d="M174.518 103.94C176.29 103.94 177.726 102.504 177.726 100.732C177.726 98.9602 176.29 97.5239 174.518 97.5239C172.747 97.5239 171.31 98.9602 171.31 100.732C171.31 102.504 172.747 103.94 174.518 103.94Z" fill="#7E49FF"/>
<path id="Vector_9" d="M171.31 89.8254C174.145 89.8254 176.443 87.5273 176.443 84.6925C176.443 81.8576 174.145 79.5596 171.31 79.5596C168.476 79.5596 166.177 81.8576 166.177 84.6925C166.177 87.5273 168.476 89.8254 171.31 89.8254Z" fill="#7E49FF"/>
<path id="Vector_10" d="M188.634 66.7276C190.406 66.7276 191.842 65.2913 191.842 63.5196C191.842 61.7478 190.406 60.3115 188.634 60.3115C186.862 60.3115 185.426 61.7478 185.426 63.5196C185.426 65.2913 186.862 66.7276 188.634 66.7276Z" fill="#7E49FF"/>
<path id="Vector_11" d="M181.576 52.612C184.411 52.612 186.709 50.3139 186.709 47.4791C186.709 44.6443 184.411 42.3462 181.576 42.3462C178.741 42.3462 176.443 44.6443 176.443 47.4791C176.443 50.3139 178.741 52.612 181.576 52.612Z" fill="#7E49FF"/>
<path id="Vector_12" d="M11.5491 158.478C13.6752 158.478 15.3988 156.754 15.3988 154.628C15.3988 152.502 13.6752 150.778 11.5491 150.778C9.42302 150.778 7.69946 152.502 7.69946 154.628C7.69946 156.754 9.42302 158.478 11.5491 158.478Z" fill="#7E49FF"/>
<path id="Vector_13" d="M157.195 35.9298C159.675 35.9298 161.686 33.919 161.686 31.4385C161.686 28.9581 159.675 26.9473 157.195 26.9473C154.714 26.9473 152.704 28.9581 152.704 31.4385C152.704 33.919 154.714 35.9298 157.195 35.9298Z" fill="#7E49FF"/>
<path id="Vector_14" d="M162.649 24.3805C165.306 24.3805 167.461 22.2261 167.461 19.5684C167.461 16.9108 165.306 14.7563 162.649 14.7563C159.991 14.7563 157.836 16.9108 157.836 19.5684C157.836 22.2261 159.991 24.3805 162.649 24.3805Z" fill="#7E49FF"/>
<path id="Vector_15" d="M116.132 6.41612C117.903 6.41612 119.34 4.97982 119.34 3.20806C119.34 1.4363 117.903 0 116.132 0C114.36 0 112.924 1.4363 112.924 3.20806C112.924 4.97982 114.36 6.41612 116.132 6.41612Z" fill="#7E49FF"/>
<path id="Vector_16" d="M55.8201 26.3053C57.5919 26.3053 59.0282 24.869 59.0282 23.0972C59.0282 21.3255 57.5919 19.8892 55.8201 19.8892C54.0484 19.8892 52.6121 21.3255 52.6121 23.0972C52.6121 24.869 54.0484 26.3053 55.8201 26.3053Z" fill="#7E49FF"/>
<path id="Vector_17" d="M76.3519 35.9298C78.8323 35.9298 80.8432 33.919 80.8432 31.4385C80.8432 28.9581 78.8323 26.9473 76.3519 26.9473C73.8714 26.9473 71.8606 28.9581 71.8606 31.4385C71.8606 33.919 73.8714 35.9298 76.3519 35.9298Z" fill="#7E49FF"/>
<path id="Vector_18" d="M37.855 34.6471C39.9812 34.6471 41.7047 32.9235 41.7047 30.7974C41.7047 28.6713 39.9812 26.9478 37.855 26.9478C35.7289 26.9478 34.0054 28.6713 34.0054 30.7974C34.0054 32.9235 35.7289 34.6471 37.855 34.6471Z" fill="#7E49FF"/>
<path id="Vector_19" d="M23.6739 29.5475C26.5087 29.5475 28.8068 27.2495 28.8068 24.4146C28.8068 21.5798 26.5087 19.2817 23.6739 19.2817C20.8391 19.2817 18.541 21.5798 18.541 24.4146C18.541 27.2495 20.8391 29.5475 23.6739 29.5475Z" fill="#7E49FF"/>
<path id="Vector_20" d="M4.81209 64.8024C7.46973 64.8024 9.62418 62.648 9.62418 59.9903C9.62418 57.3327 7.46973 55.1782 4.81209 55.1782C2.15445 55.1782 0 57.3327 0 59.9903C0 62.648 2.15445 64.8024 4.81209 64.8024Z" fill="#7E49FF"/>
<path id="Vector_21" d="M26.9478 80.8424C28.7196 80.8424 30.1559 79.4061 30.1559 77.6343C30.1559 75.8626 28.7196 74.4263 26.9478 74.4263C25.176 74.4263 23.7397 75.8626 23.7397 77.6343C23.7397 79.4061 25.176 80.8424 26.9478 80.8424Z" fill="#7E49FF"/>
<path id="Vector_22" d="M33.3639 112.923C36.1987 112.923 38.4967 110.625 38.4967 107.79C38.4967 104.955 36.1987 102.657 33.3639 102.657C30.529 102.657 28.231 104.955 28.231 107.79C28.231 110.625 30.529 112.923 33.3639 112.923Z" fill="#7E49FF"/>
<path id="Vector_23" d="M105.866 21.173C107.638 21.173 109.074 19.7367 109.074 17.9649C109.074 16.1931 107.638 14.7568 105.866 14.7568C104.094 14.7568 102.658 16.1931 102.658 17.9649C102.658 19.7367 104.094 21.173 105.866 21.173Z" fill="#7E49FF"/>
<path id="Vector_24" d="M116.773 34.6471C118.899 34.6471 120.623 32.9235 120.623 30.7974C120.623 28.6713 118.899 26.9478 116.773 26.9478C114.647 26.9478 112.924 28.6713 112.924 30.7974C112.924 32.9235 114.647 34.6471 116.773 34.6471Z" fill="#7E49FF"/>
<path id="check" fill-rule="evenodd" clip-rule="evenodd" d="M103.276 153.475C92.6518 153.475 82.2664 150.325 73.4329 144.423C64.5994 138.52 57.7146 130.131 53.649 120.316C49.5834 110.5 48.5196 99.7 50.5922 89.2802C52.6648 78.8604 57.7808 69.2892 65.2931 61.7769C72.8053 54.2647 82.3765 49.1487 92.7963 47.0761C103.216 45.0035 114.017 46.0672 123.832 50.1328C133.647 54.1984 142.036 61.0833 147.939 69.9168C153.841 78.7503 156.991 89.1357 156.991 99.7596C156.991 114.006 151.332 127.669 141.258 137.742C131.185 147.816 117.522 153.475 103.276 153.475ZM72.8619 111.873C71.7068 110.705 71.0589 109.128 71.0589 107.486C71.0589 105.843 71.7068 104.267 72.8619 103.099L76.0241 99.9548C76.5618 99.4122 77.203 98.9831 77.9098 98.6931C78.6165 98.4031 79.3744 98.258 80.1383 98.2666C80.9022 98.2751 81.6566 98.437 82.3567 98.7427C83.0568 99.0484 83.6884 99.4916 84.2139 100.046L89.8003 105.842C90.0666 106.123 90.3875 106.347 90.7432 106.5C91.0989 106.653 91.4821 106.732 91.8693 106.732C92.2565 106.732 92.6396 106.653 92.9953 106.5C93.351 106.347 93.6718 106.123 93.9381 105.842L122.407 76.4953C122.937 75.937 123.574 75.4914 124.28 75.1854C124.985 74.8794 125.746 74.7194 126.515 74.7149C127.285 74.7104 128.047 74.8615 128.757 75.1591C129.466 75.4568 130.108 75.8949 130.644 76.447L133.715 79.5518C134.842 80.7148 135.472 82.2707 135.472 83.8902C135.472 85.5097 134.842 87.0656 133.715 88.2287L95.9185 126.637C95.391 127.183 94.7599 127.618 94.0621 127.917C93.3642 128.216 92.6136 128.373 91.8545 128.378C91.0954 128.383 90.3429 128.236 89.6412 127.946C88.9394 127.657 88.3026 127.23 87.768 126.691L72.8619 111.873Z" fill="#7E49FF"/>
<path id="Vector_25" d="M179.906 74.8474C182.983 74.8474 185.478 72.3527 185.478 69.2753C185.478 66.1979 182.983 63.7031 179.906 63.7031C176.828 63.7031 174.334 66.1979 174.334 69.2753C174.334 72.3527 176.828 74.8474 179.906 74.8474Z" fill="#7E49FF"/>
</g>
</svg>
